<?xml version="1.0" encoding="UTF-8"?>
<!DOCTYPE svg PUBLIC "-//W3C//DTD SVG 1.1//EN" "http://www.w3.org/Graphics/SVG/1.1/DTD/svg11.dtd">
<!-- Creator: CorelDRAW (Versão de avaliação) -->
<svg xmlns="http://www.w3.org/2000/svg" xml:space="preserve" width="62.3484mm" height="67.7332mm" version="1.1" style="shape-rendering:geometricPrecision; text-rendering:geometricPrecision; image-rendering:optimizeQuality; fill-rule:evenodd; clip-rule:evenodd"
viewBox="0 0 6234.84 6773.32"
 xmlns:xlink="http://www.w3.org/1999/xlink"
 xmlns:xodm="http://www.corel.com/coreldraw/odm/2003">
 <defs>
  <style type="text/css">
   <![CDATA[
    .fil1 {fill:#4D4E48}
    .fil0 {fill:#B59363}
   ]]>
  </style>
 </defs>
 <g id="Camada_x0020_1">
  <metadata id="CorelCorpID_0Corel-Layer"/>
  <g id="_2093773030656">
   <path class="fil0" d="M3464.49 986.32l-5.1 610.1c1378.05,385.2 1978.67,1881.92 1094.77,3054.72l-1094.77 -1085.14 0 854.26 637.49 643.92c-143.87,166.49 -372.14,244.05 -625.44,297.69l4.63 624.57c355.95,-44.5 742.67,-187.49 1098.62,-450.87l454.48 477.17 856.85 17.54 -854.28 -904.31c1340.44,-1742.94 174.51,-3919.81 -1567.25,-4139.65z"/>
   <polygon class="fil1" points="3154.84,385.19 1496.76,1866.87 2167.05,1849.23 2184.69,5976.75 3154.84,5994.39 "/>
   <polygon class="fil1" points="1743.72,2431.31 1726.08,5959.11 738.29,5994.39 755.93,3860.07 103.29,3842.43 "/>
  </g>
 </g>
</svg>
